<mxfile host="Electron" agent="Mozilla/5.0 (Windows NT 10.0; Win64; x64) AppleWebKit/537.36 (KHTML, like Gecko) draw.io/27.0.9 Chrome/134.0.6998.205 Electron/35.4.0 Safari/537.36" version="27.0.9">
  <diagram name="第 1 页" id="PRnEPIBk8cXIDJdB3Pdu">
    <mxGraphModel dx="668" dy="483" grid="1" gridSize="10" guides="1" tooltips="1" connect="1" arrows="1" fold="1" page="1" pageScale="1" pageWidth="1169" pageHeight="827" math="0" shadow="0">
      <root>
        <mxCell id="0" />
        <mxCell id="1" parent="0" />
        <mxCell id="s3jgAwZ8BftMlTpOqBFL-1" value="解封装线程&#xa;（Demux Thread）" style="whiteSpace=wrap;strokeWidth=2;fontStyle=1" parent="1" vertex="1">
          <mxGeometry x="80" y="80" width="150" height="50" as="geometry" />
        </mxCell>
        <mxCell id="s3jgAwZ8BftMlTpOqBFL-2" value="音/视频解码线程&#xa;（Decode Threads）" style="whiteSpace=wrap;strokeWidth=2;fontStyle=1" parent="1" vertex="1">
          <mxGeometry x="280" y="80" width="150" height="50" as="geometry" />
        </mxCell>
        <mxCell id="s3jgAwZ8BftMlTpOqBFL-3" value="音/视频渲染线程&#xa;（Render Threads）" style="whiteSpace=wrap;strokeWidth=2;fontStyle=1" parent="1" vertex="1">
          <mxGeometry x="480" y="80" width="150" height="50" as="geometry" />
        </mxCell>
        <mxCell id="s3jgAwZ8BftMlTpOqBFL-4" value="" style="curved=1;startArrow=none;endArrow=block;exitX=1;exitY=0.5;entryX=0;entryY=0.5;rounded=0;" parent="1" source="s3jgAwZ8BftMlTpOqBFL-1" target="s3jgAwZ8BftMlTpOqBFL-2" edge="1">
          <mxGeometry relative="1" as="geometry">
            <Array as="points" />
          </mxGeometry>
        </mxCell>
        <mxCell id="s3jgAwZ8BftMlTpOqBFL-5" value="" style="curved=1;startArrow=none;endArrow=block;exitX=1;exitY=0.5;entryX=0;entryY=0.5;rounded=0;" parent="1" source="s3jgAwZ8BftMlTpOqBFL-2" target="s3jgAwZ8BftMlTpOqBFL-3" edge="1">
          <mxGeometry relative="1" as="geometry">
            <Array as="points" />
          </mxGeometry>
        </mxCell>
      </root>
    </mxGraphModel>
  </diagram>
</mxfile>
